inDegrees=no
num_controls=7
num_derivatives=13
num_iterations=117
num_multipliers=7
num_parameters=0
num_slacks=7
num_states=26
objective=0.497217
objective_accelerations=0.032386
objective_balance=0.003271
objective_effort=0.035019
objective_height=0.421056
objective_ligament=0.005484
solver_duration=1387.706108
status=Solve_Succeeded
success=true
DataType=double
version=3
OpenSimVersion=4.5
endheader
time	/jointset/ground_pelvis/pelvis_tilt/value	/jointset/ground_pelvis/pelvis_tx/value	/jointset/ground_pelvis/pelvis_ty/value	/jointset/hip_r/hip_flexion_r/value	/jointset/hip_r/hip_adduction_r/value	/jointset/hip_r/hip_rotation_r/value	/jointset/back/lumbar_extension/value	/jointset/patellofemoral_r/patellar_flexion_r/value	/jointset/knee_r/knee_flexion_r/value	/jointset/knee_r/knee_adduction_r/value	/jointset/knee_r/knee_rotation_r/value	/jointset/ankle_r/ankle_angle_r/value	/jointset/subtalar_r/subtalar_angle_r/value	/jointset/ground_pelvis/pelvis_tilt/speed	/jointset/ground_pelvis/pelvis_tx/speed	/jointset/ground_pelvis/pelvis_ty/speed	/jointset/hip_r/hip_flexion_r/speed	/jointset/hip_r/hip_adduction_r/speed	/jointset/hip_r/hip_rotation_r/speed	/jointset/back/lumbar_extension/speed	/jointset/patellofemoral_r/patellar_flexion_r/speed	/jointset/knee_r/knee_flexion_r/speed	/jointset/knee_r/knee_adduction_r/speed	/jointset/knee_r/knee_rotation_r/speed	/jointset/ankle_r/ankle_angle_r/speed	/jointset/subtalar_r/subtalar_angle_r/speed	/forceset/tau_hip_flexion_r	/forceset/tau_hip_adduction_r	/forceset/tau_hip_rotation_r	/forceset/tau_knee_flexion_r	/forceset/tau_ankle_angle_r	/forceset/tau_subtalar_angle_r	/forceset/tau_lumbar_extension	lambda_cid13_p0	lambda_cid14_p0	lambda_cid14_p1	lambda_cid14_p2	lambda_cid14_p3	lambda_cid14_p4	lambda_cid14_p5	/jointset/ground_pelvis/pelvis_tilt/accel	/jointset/ground_pelvis/pelvis_tx/accel	/jointset/ground_pelvis/pelvis_ty/accel	/jointset/hip_r/hip_flexion_r/accel	/jointset/hip_r/hip_adduction_r/accel	/jointset/hip_r/hip_rotation_r/accel	/jointset/back/lumbar_extension/accel	/jointset/patellofemoral_r/patellar_flexion_r/accel	/jointset/knee_r/knee_flexion_r/accel	/jointset/knee_r/knee_adduction_r/accel	/jointset/knee_r/knee_rotation_r/accel	/jointset/ankle_r/ankle_angle_r/accel	/jointset/subtalar_r/subtalar_angle_r/accel	gamma_cid13_p0	gamma_cid14_p0	gamma_cid14_p1	gamma_cid14_p2	gamma_cid14_p3	gamma_cid14_p4	gamma_cid14_p5
1.5	-0.106726028610441	0.06214665577719251	0.8715323188168348	0.6624878288620859	-0.2275934525545951	-0.1439540387010474	-0.2797665624168221	0.6431844752192439	0.6431844752192929	0.04221761189943184	0.1744553399546256	0.2574080273945996	0.05838701081274573	0.2289728196611538	0.1152789058614035	0.3212122545366707	-1.430936733406131	0.01875005442974271	-0.280311437667545	0.6976272874483799	-1.732986295884754	-1.732986295884642	0.2759810907221723	0.0002381295538022916	-0.6204229879993882	-0.1529695866265742	-0.06424535350043754	-0.01622911488965495	0.006609467410035823	-0.3221563372173393	0.0551084340027997	-0.01232089786780329	0.1216865549947581	-34.44543343459689	-24.09801288446868	-5.552469602593839	-3.244205946792523	3.494122879558367	-662.8419554434749	57.04330707045461	0.04649520150031583	0.2578050633791959	-0.4415634204194942	-0.7056375521601516	-0.01972271848634982	-0.551783353251483	1.185835310203565	-0.9991835331072739	-0.9991835331072887	0.3817935904877593	0.0006357709948965466	-0.4598650327113616	-0.03340004954542965	1.146065394153881e-07	1.502788570436755e-07	-5.723611707550328e-07	1.220054763004155e-06	-1.82868113454184e-08	1.78789984755359e-07	-8.886501073648252e-07
1.51	-0.1044343996769425	0.06331216839868388	0.8747216480817549	0.6481451371720013	-0.2274076830075414	-0.1467838653782443	-0.2727319114627859	0.6258070869541356	0.6258070869541651	0.0449982625741541	0.1744580029441682	0.2511814266045084	0.0568548267121651	0.2293198127312056	0.1178046629032137	0.3165866546385224	-1.437399204458505	0.01840372011733457	-0.2856366563520678	0.7091959167391432	-1.742239901763367	-1.742239901763431	0.2801335937095719	0.0002890620452029363	-0.624808157039585	-0.1534409253565288	-0.05875789831898114	-0.01820468905988666	0.00596434013058924	-0.3191231785237238	0.05922706029828916	-0.01303969597277086	0.1165772457158888	-35.33077935151514	-22.65256620525846	-5.498435886253008	-3.382030783012479	2.981821570422334	-659.8192991640291	57.23163324661062	0.02384289816402377	0.2471179693935987	-0.483062890584938	-0.5861738852051568	-0.04197077893692899	-0.520100842077252	1.126328745624563	-0.8507566240640821	-0.8507566240904331	0.4296261178604052	0.006726823500722422	-0.4144754644092938	-0.05002784385855906	1.241550727822077e-07	1.507731877227026e-07	-6.984527553289061e-07	1.236410615616493e-06	-5.310023340711773e-09	1.827409358322003e-07	-9.756156989833896e-07
1.52	-0.1021402925050647	0.06450236997955565	0.8778627204244791	0.6337438963707056	-0.2272253532018786	-0.1496663861854892	-0.2655847838144199	0.6083447011284796	0.6083447011284832	0.04781996777174895	0.1744610562256775	0.244913647599068	0.05531872381245716	0.2294684673375192	0.120216697737481	0.311560870097483	-1.442646555648044	0.01806210615217178	-0.2908502636775709	0.7201226263143852	-1.749985807995012	-1.749985807995252	0.2841919952967474	0.0003161879481263473	-0.6286586310692003	-0.1537533464520071	-0.05327044313752202	-0.02018026323011502	0.005319212851103284	-0.3160900198301071	0.06334568659377994	-0.01375849407773228	0.1114679364370212	-36.18264764470585	-21.21598576770062	-5.443325495635155	-3.523031174582439	2.466057497988006	-656.9421151071857	57.49268240273729	0.006827508752713676	0.2350606218705768	-0.521600348997728	-0.4626135795931431	-0.01877864903726287	-0.5294610814475749	1.057451367099367	-0.6976436037137234	-0.6976436037137408	0.3629733104428879	-0.004125546700560483	-0.3529260305951062	-0.001616522650151123	1.333122010046616e-07	1.506069882539126e-07	-8.176391560066618e-07	1.247862681666491e-06	7.461662271854937e-09	1.843639285578218e-07	-1.054475551756407e-06
1.53	-0.09984572173067785	0.06571611294549633	0.8809515980821737	0.6192962581870628	-0.2270464496261035	-0.1526007052138909	-0.2583315643381652	0.5908124028176535	0.5908124028176535	0.05068172580576803	0.1744644672578568	0.2386100561089737	0.05378025486387071	0.2294121301117665	0.1225116821358642	0.3061548346944274	-1.446679769913813	0.01772018430611299	-0.2959940156389308	0.7304138292148541	-1.756221699309354	-1.756221699309358	0.2881407035439529	0.000359941321941212	-0.6319674743253493	-0.1539126904298445	-0.04778045375576302	-0.0222551948521519	0.004691099961074876	-0.3131269453510537	0.06756742822281044	-0.0146092094314747	0.106386288204076	-36.99656744045122	-19.76361596896692	-5.450713335274021	-3.644961800241055	1.951367346965679	-654.2341262277282	57.68224457081185	-0.01688315219433296	0.2236906987009976	-0.5590425363808893	-0.3434609475322822	-0.04154596444763066	-0.5036833973655629	0.9988387933345697	-0.5487680128711676	-0.5487680128356806	0.4079206803876407	0.007931676420736651	-0.3060143229494356	-0.01893769563015973	1.420534612612269e-07	1.497389755030669e-07	-9.294887987947926e-07	1.254104474494003e-06	2.001542659277298e-08	1.835134655352723e-07	-1.12472305700603e-06
1.54	-0.09755271809134265	0.06695220042539658	0.8839846279057536	0.6048143307412673	-0.2268708946712061	-0.1555858319906796	-0.2509786560245433	0.5732253043701738	0.5732253043701662	0.05358239114196588	0.1744681770031651	0.2322761460163525	0.05224102360344973	0.2291550403278153	0.1246856005293916	0.3003913032745227	-1.449504408078122	0.01739238197775705	-0.3010118133557025	0.7400603937878842	-1.760945835326763	-1.76094583532653	0.2919734557322916	0.0003759305756851825	-0.6347223515744842	-0.153905808818867	-0.04229046437399946	-0.02433012647418209	0.004062987070978229	-0.3101638708719973	0.0717891698518436	-0.01545992478520583	0.1013046399711331	-37.76809966715927	-18.32086414372318	-5.456658154103234	-3.770695169342599	1.433814252739448	-651.686267962596	57.9490649863657	-0.03332300288695936	0.2108474208993723	-0.5930995523675464	-0.2208983593010532	-0.01595474549667266	-0.5042702325299394	0.928523701611659	-0.3952925443270421	-0.3952925443270457	0.3397820986694937	-0.009678370714752967	-0.2421328291923376	0.03162859511286974	1.512146927810785e-07	1.480591045389638e-07	-1.048858709938014e-06	1.254352900546835e-06	3.362786064410872e-08	1.815371770501459e-07	-1.193351365965392e-06
1.55	-0.09526334315668027	0.0682094099697652	0.8869583022687531	0.5903102227972927	-0.2266985761236737	-0.1586207688228446	-0.2435324806613851	0.5555985202315616	0.5555985202315553	0.0565207259420593	0.1744721536135758	0.2259174632059132	0.0507026598593121	0.2286835015873566	0.1267347224937745	0.2942910919079874	-1.451114492875392	0.01707411932936058	-0.3059508955731769	0.7490662191342249	-1.764159533741668	-1.76415953374143	0.2956729094711716	0.0004111952367940535	-0.6369203208160902	-0.1537388893747712	-0.03675226048664471	-0.02658056905769353	0.003441512785325463	-0.3073403398992243	0.07620152200516739	-0.01642653470842595	0.09621893437306202	-38.49284212324145	-16.8337019593724	-5.510762423611808	-3.882350533312426	0.8998030332190554	-649.3147141363356	58.18181514627746	-0.05952147686694578	0.1987180465448611	-0.6263182523713631	-0.1006433626202288	-0.03925775664565127	-0.4847948579189945	0.8703429947804145	-0.2467229356808122	-0.2467229356800282	0.3818399618264481	0.009115287051124028	-0.194519602057988	0.01338170805550832	1.608598042347163e-07	1.454438317204553e-07	-1.176893278099057e-06	1.247695925750579e-06	4.846006634136043e-08	1.782637418363983e-07	-1.260114079199016e-06
1.56	-0.09297977404287441	0.06948646542624504	0.8898694072533723	0.5757960980408066	-0.2265293393490593	-0.1617043100054926	-0.2359995008360368	0.537947136219683	0.537947136219673	0.05949541786960877	0.1744762801510954	0.2195396225769748	0.04916679692741471	0.2279938761572383	0.1286547829516355	0.2878774275984687	-1.451507770579868	0.01677602739558453	-0.3107326834531607	0.7574212862259749	-1.765865809980915	-1.765865809980672	0.299244881223223	0.0004059159989994833	-0.6385539152742269	-0.1534056463707728	-0.03121405659928602	-0.02883101164119799	0.002820038499616033	-0.3045168089264484	0.08061387415849385	-0.01739314463163481	0.09113322877499247	-39.16652083251189	-15.35683765589918	-5.563253177701664	-3.998166512825196	0.3634839591287365	-647.116448271648	58.49507450872987	-0.07694034081881711	0.1850351195949324	-0.6557901409642236	0.022463059257917	-0.01192060257257143	-0.4728113650318072	0.7983720506935461	-0.09380810919542217	-0.09380810919542254	0.31428570130374	-0.01778715049545966	-0.1292578724985463	0.06489330709341194	1.709697270642292e-07	1.441364447375381e-07	-1.308155878787365e-06	1.244664746039788e-06	6.202809241053538e-08	1.809896333571908e-07	-1.327925110721307e-06
1.57	-0.09070416813603624	0.07078206525315645	0.8927148859447783	0.5612840631406063	-0.2263630108988453	-0.1648351611777623	-0.2283862976296872	0.5202862199094096	0.520286219909406	0.06250511342783259	0.1744804184951939	0.213148275404877	0.04763506867464887	0.2270885395242288	0.1304421820953275	0.2811725277362497	-1.45069130572213	0.0164936431706534	-0.3154084390198332	0.7651084591679835	-1.766060047192396	-1.76606004719219	0.3026687257563275	0.0004135229753040187	-0.6396171239030466	-0.1529108438458458	-0.02562099430086595	-0.03123233027101231	0.002193345300889348	-0.3018288187986365	0.08523963827723234	-0.01851151141960952	0.0860357728486171	-39.78505957977249	-13.82846885174443	-5.67972655208083	-4.09567958590992	-0.1944066075413895	-645.0750061624087	58.74170283094568	-0.1031312187667001	0.1721584449513798	-0.6846679304542702	0.1424401753996772	-0.03574739256895307	-0.4603409404577411	0.7372555346208006	0.05634164178769605	0.05634164178205187	0.3524730204920364	0.009018954513058713	-0.08006091318720968	0.04605558860512798	1.816606641135858e-07	1.444639150491101e-07	-1.443453520134753e-06	1.24616581018583e-06	7.401589394461437e-08	1.912146832961585e-07	-1.397046540104432e-06
